<?xml version="1.0" encoding="UTF-8"?>
<svg enable-background="new 0 0 89.9 23.4" version="1.1" viewBox="0 0 89.9 23.4" width="125px" height="80px" xml:space="preserve" xmlns="http://www.w3.org/2000/svg">
<style type="text/css">
	.st0{fill:#E8E8E8;stroke:#E8E8E8;stroke-width:2;stroke-linecap:round;stroke-linejoin:round;stroke-miterlimit:10;}
	.st1{fill:#E8E8E8;}
	.st2{fill:#FFFFFF;}
</style>
<rect class="st0" x="21.1" y="4.7" width="67.8" height="14"/>
<path class="st1" d="m12 0c-6.6 0-12 5.4-12 12 0 5.3 3.4 9.8 8.2 11.4 0.6 0.1 0.8-0.3 0.8-0.6v-2.2c-3.3 0.7-4-1.4-4-1.4-0.5-1.4-1.3-1.8-1.3-1.8-1.1-0.7 0.1-0.7 0.1-0.7 1.2 0.1 1.8 1.2 1.8 1.2 1.1 1.8 2.8 1.3 3.5 1 0.1-0.8 0.4-1.3 0.8-1.6-2.8-0.3-5.6-1.3-5.6-5.9 0-1.3 0.5-2.4 1.2-3.2 0-0.3-0.5-1.6 0.2-3.2 0 0 1-0.3 3.3 1.2 1-0.3 2-0.4 3-0.4s2 0.1 3 0.4c2.3-1.5 3.3-1.2 3.3-1.2 0.7 1.7 0.2 2.9 0.1 3.2 0.8 0.8 1.2 1.9 1.2 3.2 0 4.6-2.8 5.6-5.5 5.9 0.4 0.4 0.8 1.1 0.8 2.2v3.3c0 0.3 0.2 0.7 0.8 0.6 4.9-1.6 8.3-6.1 8.3-11.4 0-6.6-5.4-12-12-12z"/>
	<path class="st2" d="M31.4,8h1.1l-2.6,7.5h-1.1L31.4,8z"/>
	<path class="st2" d="m42 11.7v3.1h-1.6v-2.8c0-0.9-0.4-1.3-1-1.3-0.7 0-1.2 0.4-1.2 1.4v2.7h-1.6v-2.8c0-0.9-0.4-1.3-1-1.3-0.7 0-1.2 0.4-1.2 1.4v2.7h-1.6v-5.4h1.5v0.6c0.4-0.5 1-0.7 1.7-0.7s1.4 0.3 1.8 0.9c0.4-0.5 1.1-0.9 1.9-0.9 1.3 0 2.3 0.7 2.3 2.4z"/>
	<path class="st2" d="m48.1 11.7v3.1h-1.5v-0.7c-0.3 0.5-0.8 0.7-1.6 0.7-1.3 0-2-0.7-2-1.6s0.7-1.6 2.3-1.6h1.2c0-0.7-0.4-1.1-1.2-1.1-0.6 0-1.2 0.2-1.5 0.5l-0.6-1.1c0.6-0.4 1.5-0.7 2.3-0.7 1.7 0.1 2.6 0.8 2.6 2.5zm-1.5 1.3v-0.5h-1.1c-0.7 0-1 0.3-1 0.6 0 0.4 0.3 0.7 0.9 0.7 0.5 0 1-0.3 1.2-0.8z"/>
	<path class="st2" d="m49.3 7.7c0-0.5 0.4-0.9 1-0.9s1 0.4 1 0.8c0 0.5-0.4 0.9-1 0.9-0.6 0.1-1-0.3-1-0.8zm0.2 1.7h1.6v5.4h-1.6v-5.4z"/>
	<path class="st2" d="m52 14.2l0.5-1.1c0.5 0.3 1.2 0.5 1.9 0.5s1-0.2 1-0.5c0-0.9-3.2 0-3.2-2.1 0-1 0.9-1.7 2.5-1.7 0.7 0 1.6 0.2 2.1 0.5l-0.5 1.1c-0.5-0.3-1.1-0.4-1.5-0.4-0.7 0-1 0.2-1 0.5 0 0.9 3.2 0 3.2 2.1 0 1-0.9 1.7-2.5 1.7-1.1 0-2-0.2-2.5-0.6z"/>
	<path class="st2" d="m57.5 12c0-1.6 1.2-2.8 3-2.8s2.9 1.1 2.9 2.8-1.2 2.8-2.9 2.8-3-1.1-3-2.8zm4.3 0c0-0.9-0.6-1.5-1.4-1.5s-1.4 0.6-1.4 1.5 0.6 1.5 1.4 1.5 1.4-0.5 1.4-1.5z"/>
	<path class="st2" d="m69.9 11.7v3.1h-1.6v-2.8c0-0.9-0.4-1.3-1.1-1.3s-1.3 0.5-1.3 1.4v2.7h-1.6v-5.4h1.5v0.6c0.4-0.5 1-0.7 1.8-0.7 1.3 0 2.3 0.7 2.3 2.4z"/>
	<path class="st2" d="m80.4 11.7v3.1h-1.6v-2.8c0-0.9-0.4-1.3-1-1.3-0.7 0-1.2 0.4-1.2 1.4v2.7h-1.6v-2.8c0-0.9-0.4-1.3-1-1.3-0.7 0-1.2 0.4-1.2 1.4v2.7h-1.6v-5.4h1.5v0.6c0.4-0.5 1-0.7 1.7-0.7s1.4 0.3 1.8 0.9c0.4-0.5 1.1-0.9 1.9-0.9 1.4 0 2.3 0.7 2.3 2.4z"/>
</svg>
