<?xml version="1.0" encoding="utf-8"?>
<!-- Generator: Adobe Illustrator 19.2.0, SVG Export Plug-In . SVG Version: 6.00 Build 0)  -->
<svg version="1.1" id="Layer_1" xmlns="http://www.w3.org/2000/svg" xmlns:xlink="http://www.w3.org/1999/xlink" width="150px" x="0px" y="0px"
	 viewBox="0 0 242.8 107.4" style="enable-background:new 0 0 242.8 107.4;" xml:space="preserve">
<style type="text/css">
	.st0{fill:url(#SVGID_1_);}
	.st1{fill:#59595A;}
</style>
<linearGradient id="SVGID_1_" gradientUnits="userSpaceOnUse" x1="-1.818989e-12" y1="53.7066" x2="98.4608" y2="53.7066">
	<stop  offset="0" style="stop-color:#29C5F4"/>
	<stop  offset="0.9987" style="stop-color:#3C62AE"/>
</linearGradient>
<path class="st0" d="M41.4,18.7c-2.6-1.3-4.9-2.3-7.1-3.2C37.8,6.1,42.8,0,49.2,0c6.3,0,11.2,5.8,14.6,14.7c-2.2,0.9-4.5,2-7,3.3
	c-2.6-7-5.6-10.2-7.6-10.2C47.3,7.9,44.1,11.2,41.4,18.7z M49.2,99.6c-1.9,0-4.9-3.2-7.6-10.2c-2.6,1.3-4.8,2.4-7,3.3
	c3.4,8.9,8.3,14.7,14.6,14.7c6.4,0,11.4-6.1,14.9-15.4c-2.2-0.9-4.5-1.9-7.1-3.2C54.3,96.2,51.2,99.6,49.2,99.6z M28.2,89.6
	c-8.6,3.2-21.4,6.2-26.5-1.4C-0.8,84.4-1.8,77.2,8,64c2.6-3.5,5.6-6.9,8.7-10.1c6.9-7,14.6-13.7,24.6-20.6
	c-4.8-2.7-10.1-5.2-15.3-7.1c-5.3-1.9-9.9-3-13.5-3c-2.3,0-4,0.5-4.5,1.3c-0.6,0.9-0.6,3.5,2,8.2l0.9-0.1c4.7,0,8.5,3.9,8.5,8.6
	S15.7,50,11,50s-8.5-3.9-8.5-8.6c0-1.5,0.4-3,1.1-4.3c-5-8.8-3.9-14-1.9-17.1c1.5-2.1,4.5-4.7,10.8-4.7c11.3,0,26.4,7.4,36.2,13.2
	c9.9-6.1,25.6-14.1,37.2-14.1c6.4,0,9.4,2.6,10.9,4.8c2.5,3.8,3.5,11-6.4,24.2C76.6,61.9,49.2,81.9,28.2,89.6z M84.3,38.6
	c6.7-9,6.9-13.8,6.1-15c-0.6-0.8-2.2-1.3-4.5-1.3c-8.7,0-22,6.5-29.7,11C61.8,37,67.1,40.9,72,44.9c-1.8,1.8-3.7,3.7-5.7,5.4
	c-5.3-4.4-11.3-8.7-17.5-12.6c-7.1,4.6-14.2,10.1-20.6,15.9c4.8,4.3,10.5,8.7,16.7,12.9c-2.3,1.5-4.7,2.9-7.4,4.4l-0.1,0
	c-5.1-3.6-10.2-7.6-14.8-11.8C10,72,6.4,81.3,8.1,83.8c0.6,0.8,2.2,1.3,4.5,1.3c10.5,0,27.2-9,37.1-15.5
	C61.8,61.7,75.6,50.3,84.3,38.6z M94.9,70.4c0.6-1.2,1-2.6,1-4c0-4.8-3.8-8.6-8.5-8.6s-8.5,3.9-8.5,8.6s3.8,8.6,8.5,8.6l1.2-0.1
	c2.5,4.6,2.4,7.2,1.9,8c-0.6,0.8-2.2,1.3-4.5,1.3c-7.2,0-17.2-4.2-23.6-7.4c-2.1,1.5-4.8,3.3-7.4,5c8.6,4.6,21.3,10.3,31,10.3
	c6.3,0,9.4-2.5,10.8-4.7C98.8,84.4,99.8,79.1,94.9,70.4z"/>
<g>
	<path class="st1" d="M122.9,74.2V30.7c0-0.6,0.1-1.1,0.3-1.4c0.2-0.3,0.6-0.4,1.3-0.4h3.1c0.6,0,1.1,0.1,1.3,0.4
		c0.2,0.3,0.3,0.7,0.3,1.4V47c1.6-1.8,3.4-3.1,5.6-3.9c2.1-0.8,4.8-1.3,7.9-1.3c3.8,0,6.8,1,9.1,3c2.2,2,3.4,5,3.4,8.9v20.5
		c0,0.7-0.2,1.2-0.5,1.6s-0.9,0.5-1.6,0.5h-2.1c-1.4,0-2.2-0.7-2.2-2.1V54.1c0-2.7-0.7-4.6-2-5.7c-1.3-1.1-3.4-1.7-6.1-1.7
		c-1.8,0-3.6,0.4-5.4,1.1c-1.8,0.7-3.2,1.7-4.4,3.1c-1.1,1.3-1.7,2.8-1.7,4.4v19c0,0.7-0.2,1.2-0.5,1.6c-0.3,0.3-0.9,0.5-1.6,0.5
		H125C123.6,76.2,122.9,75.5,122.9,74.2z"/>
	<path class="st1" d="M167.2,74.1c-2.3-2.1-3.5-5.2-3.5-9.3V44.9c0-1.4,0.7-2.1,2.1-2.1h2.2c0.7,0,1.3,0.2,1.6,0.5
		c0.3,0.3,0.5,0.9,0.5,1.6v19.8c0,2.7,0.7,4.7,2.1,5.9c1.4,1.2,3.5,1.8,6.3,1.8c3,0,5.5-0.8,7.5-2.4c2-1.6,3.1-3.7,3.1-6.3V44.9
		c0-1.4,0.7-2.1,2.2-2.1h2.1c0.7,0,1.3,0.2,1.6,0.5c0.3,0.3,0.5,0.9,0.5,1.6v29.6c0,0.7-0.1,1.1-0.3,1.4c-0.2,0.3-0.6,0.4-1.2,0.4
		h-2.3c-0.5,0-0.9-0.1-1-0.3c-0.2-0.2-0.3-0.6-0.3-1.1l-0.2-3.3c-1.6,1.9-3.4,3.4-5.6,4.3c-2.2,1-4.8,1.5-7.9,1.5
		C172.6,77.3,169.6,76.2,167.2,74.1z"/>
	<path class="st1" d="M211.5,76c-2.9-0.8-5.1-1.9-6.8-3.1V31c0-1.4,0.7-2.1,2.1-2.1h2.1c0.7,0,1.3,0.2,1.6,0.5
		c0.3,0.3,0.5,0.9,0.5,1.6v14.7c1.4-1.3,3.2-2.3,5.4-2.9c2.2-0.6,4.5-1,7.1-1c5.1,0,9.1,1.4,11.9,4.3c2.8,2.9,4.2,6.9,4.2,12.1
		c0,6.1-1.6,10.8-4.8,14.1c-3.2,3.3-8,5-14.4,5C217.3,77.3,214.3,76.9,211.5,76z M230.1,69c2.2-2.3,3.2-5.8,3.2-10.5
		c0-4.1-0.9-7.1-2.7-9c-1.8-1.9-4.7-2.9-8.9-2.9c-2.8,0-5.3,0.7-7.5,2.1c-2.2,1.4-3.3,3.4-3.3,6v15.7c1,0.6,2.3,1.2,4,1.6
		c1.7,0.4,3.4,0.6,5.1,0.6C224.6,72.5,227.9,71.3,230.1,69z"/>
</g>
</svg>
