<?xml version="1.0" encoding="utf-8"?>
<!-- Generator: Adobe Illustrator 19.2.0, SVG Export Plug-In . SVG Version: 6.00 Build 0)  -->
<svg version="1.1" id="Layer_1" xmlns="http://www.w3.org/2000/svg" xmlns:xlink="http://www.w3.org/1999/xlink" width="130px" height="40px" x="0px" y="0px"
	 viewBox="0 0 325.7 90.1" style="enable-background:new 0 0 325.7 90.1;" xml:space="preserve">
<style type="text/css">
	.st0{fill:#59595B;}
	.st1{fill:url(#SVGID_1_);}
</style>
<g>
	<path class="st0" d="M106.1,60.9V31.2c0-1,0.5-1.4,1.4-1.4h1.5c0.5,0,0.9,0.1,1.1,0.4c0.2,0.2,0.3,0.6,0.3,1.1v27.7h15.9
		c0.5,0,0.9,0.1,1.1,0.3c0.2,0.2,0.3,0.6,0.3,1.1v0.8c0,0.5-0.1,0.8-0.3,1s-0.6,0.3-1.1,0.3h-18.8C106.6,62.4,106.1,61.9,106.1,60.9
		z"/>
	<path class="st0" d="M132.8,34c-0.4-0.4-0.5-0.8-0.5-1.4v-1c0-0.5,0.2-1,0.5-1.4c0.4-0.4,0.8-0.6,1.4-0.6h1.3
		c0.6,0,1.1,0.2,1.4,0.6c0.4,0.4,0.5,0.8,0.5,1.4v1c0,0.5-0.2,1-0.5,1.4c-0.4,0.4-0.8,0.6-1.4,0.6h-1.3
		C133.7,34.5,133.2,34.3,132.8,34z M133.1,62c-0.2-0.2-0.3-0.6-0.3-1.1V40.8c0-0.5,0.1-0.8,0.3-1.1c0.2-0.2,0.6-0.4,1.1-0.4h1.4
		c1,0,1.5,0.5,1.5,1.4v20.2c0,1-0.5,1.4-1.5,1.4h-1.4C133.7,62.4,133.3,62.2,133.1,62z"/>
	<path class="st0" d="M153.6,62.1c-0.2-0.1-0.4-0.4-0.6-0.8l-9.8-20.9c-0.1-0.1-0.1-0.2-0.1-0.4c0-0.4,0.2-0.7,0.7-0.7h2.4
		c0.4,0,0.7,0.1,0.8,0.2c0.2,0.1,0.3,0.4,0.5,0.7l7.6,16.9l7.6-16.9c0.1-0.3,0.3-0.6,0.5-0.7c0.2-0.1,0.5-0.2,0.9-0.2h2.4
		c0.5,0,0.7,0.2,0.7,0.7c0,0.2,0,0.3-0.1,0.4l-9.8,20.9c-0.2,0.4-0.3,0.6-0.5,0.8c-0.2,0.1-0.5,0.2-0.9,0.2h-1.5
		C154,62.4,153.8,62.3,153.6,62.1z"/>
	<path class="st0" d="M174.8,61.8c-2-0.8-3.6-2.1-4.8-3.9c-1.2-1.8-1.8-4-1.8-6.6c0-4.2,1.1-7.3,3.2-9.5c2.2-2.1,5.2-3.2,9.2-3.2
		c3.9,0,6.9,1,8.9,3.1c2,2.1,3,5.1,3,9.2c0,0.9-0.4,1.3-1.2,1.3h-18.9c0,2.5,0.8,4.4,2.5,5.8c1.7,1.3,4,2,6.9,2
		c2.8,0,5.2-0.6,7.2-1.9c0.2-0.1,0.3-0.1,0.4-0.1c0.2,0,0.3,0.1,0.4,0.3l0.9,1.6c0.1,0.1,0.1,0.2,0.1,0.4c0,0.2-0.1,0.4-0.4,0.6
		c-1.3,0.8-2.6,1.4-4.1,1.8s-3.1,0.6-5,0.6C179,63.1,176.8,62.7,174.8,61.8z M188.5,49.3c0-2.4-0.7-4.3-2-5.6c-1.3-1.3-3.3-2-5.9-2
		c-2.7,0-4.7,0.7-6.1,2.1c-1.4,1.4-2.1,3.2-2.1,5.5H188.5z"/>
	<path class="st0" d="M218.1,60.9V31.2c0-1,0.5-1.4,1.4-1.4h1.5c0.5,0,0.9,0.1,1.1,0.4c0.2,0.2,0.3,0.6,0.3,1.1v29.8
		c0,0.5-0.1,0.8-0.3,1.1c-0.2,0.2-0.6,0.4-1.1,0.4h-1.5C218.6,62.4,218.1,61.9,218.1,60.9z"/>
	<path class="st0" d="M232.3,58.6c-2.9-3-4.3-7.2-4.3-12.6c0-5.4,1.4-9.6,4.3-12.6c2.9-3,7-4.5,12.3-4.5c2,0,4,0.2,5.8,0.6
		c1.8,0.4,3.3,1,4.5,1.8c0.3,0.2,0.4,0.3,0.4,0.5c0,0.1,0,0.3-0.1,0.5l-1,1.7c-0.1,0.3-0.3,0.4-0.4,0.4s-0.3-0.1-0.5-0.2
		c-1-0.6-2.1-1-3.6-1.4c-1.4-0.4-3-0.6-4.7-0.6c-3.9,0-7,1.1-9.3,3.4c-2.3,2.3-3.4,5.7-3.4,10.3c0,4.7,1.2,8.1,3.5,10.3
		c2.3,2.2,5.4,3.3,9.3,3.3c1.9,0,3.6-0.2,5-0.5c1.4-0.3,2.7-0.8,3.8-1.5c0.2-0.1,0.3-0.2,0.5-0.2c0.2,0,0.3,0.1,0.4,0.3l1.1,1.8
		c0.1,0.1,0.1,0.3,0.1,0.4c0,0.1,0,0.2-0.1,0.3c-0.1,0.1-0.2,0.2-0.4,0.3c-2.5,1.7-6.1,2.5-10.8,2.5
		C239.3,63.1,235.2,61.6,232.3,58.6z"/>
	<path class="st0" d="M262.5,58.6c-2.8-3-4.2-7.2-4.2-12.6s1.4-9.6,4.2-12.6c2.8-3,6.8-4.5,11.9-4.5c5.1,0,9,1.5,11.9,4.5
		c2.8,3,4.2,7.2,4.2,12.6s-1.4,9.6-4.2,12.6c-2.8,3-6.8,4.5-11.9,4.5C269.3,63.1,265.3,61.6,262.5,58.6z M283.1,56.2
		c2.1-2.3,3.1-5.7,3.1-10.2c0-4.4-1-7.8-3.1-10.2c-2.1-2.3-5-3.5-8.7-3.5c-3.8,0-6.7,1.2-8.8,3.5c-2.1,2.3-3.1,5.7-3.1,10.2
		c0,4.4,1,7.8,3.1,10.2c2.1,2.3,5,3.5,8.8,3.5C278.1,59.7,281,58.6,283.1,56.2z"/>
	<path class="st0" d="M294.3,38.5c0-0.1,0-0.2,0.1-0.5l2.6-8c0.1-0.4,0.3-0.6,0.5-0.8c0.2-0.1,0.5-0.2,0.9-0.2h1.8
		c0.6,0,0.9,0.2,0.9,0.6c0,0.1,0,0.3-0.1,0.6l-3.5,8.2c-0.2,0.4-0.6,0.7-1.2,0.7h-1.3C294.5,39,294.3,38.8,294.3,38.5z"/>
	<path class="st0" d="M310.6,62.5c-1.8-0.4-3.3-1-4.5-1.8c-0.3-0.2-0.5-0.4-0.5-0.6c0-0.1,0-0.2,0.1-0.4l1-1.7
		c0.2-0.3,0.3-0.4,0.4-0.4c0,0,0.2,0.1,0.4,0.2c1,0.6,2.2,1.1,3.6,1.5c1.4,0.4,2.7,0.6,4.1,0.6c2.1,0,3.7-0.2,4.7-0.7
		c1-0.5,1.5-1.3,1.5-2.5c0-0.8-0.2-1.4-0.6-1.8c-0.4-0.5-1.1-0.9-2-1.2c-0.9-0.4-2.4-0.8-4.3-1.4c-1.8-0.5-3.3-1.1-4.4-1.6
		c-1.1-0.5-2-1.3-2.6-2.1c-0.6-0.9-1-2-1-3.3c0-2.1,0.9-3.7,2.6-4.8c1.7-1.1,4-1.6,6.7-1.6c1.8,0,3.5,0.2,5,0.6
		c1.5,0.4,2.8,1,3.9,1.7c0.3,0.2,0.5,0.4,0.5,0.6c0,0.1,0,0.2-0.1,0.4l-1,1.6c-0.1,0.2-0.3,0.3-0.4,0.3c-0.2,0-0.3-0.1-0.5-0.2
		c-1.9-1.2-4.2-1.8-7-1.8c-1.9,0-3.3,0.2-4.2,0.7s-1.3,1.3-1.3,2.5c0,0.8,0.2,1.4,0.6,1.8c0.4,0.5,1,0.8,1.8,1.2s1.9,0.7,3.4,1.1
		l1.9,0.6c1.9,0.6,3.3,1.2,4.3,1.8s1.8,1.3,2.2,2.1c0.4,0.8,0.7,1.8,0.7,3c0,1.9-0.8,3.5-2.5,4.6c-1.7,1.2-4.1,1.8-7.3,1.8
		C314.2,63.1,312.4,62.9,310.6,62.5z"/>
</g>
<linearGradient id="SVGID_1_" gradientUnits="userSpaceOnUse" x1="0" y1="45.0614" x2="90.1227" y2="45.0614">
	<stop  offset="0" style="stop-color:#30C5F4"/>
	<stop  offset="1" style="stop-color:#3D63AE"/>
</linearGradient>
<path class="st1" d="M2.6,30C8.8,12.5,25.4,0,45.1,0c24.9,0,45.1,20.2,45.1,45.1c0,2.6-0.3,5.1-0.7,7.5h-5.7c-4.3,0-4.9-1.9-7.3-9.2
	C74.8,38,72,30,65.9,30c-6.2,0-8.6,8.3-10.9,15c-1.2,3.7-2,5.9-3,5.9c-1,0-1.5-2.2-2.8-5.9c-2.3-6.8-5-15-11.1-15
	c-6.4,0-9.1,9-11,14.7c-1.3,4.1-1.7,6.2-2.9,6.2c-1,0-1.3-1.7-2.5-5C19.1,38.2,18.2,30,6.5,30C6.5,30,2.6,30,2.6,30z M83.2,60.1
	c-8.6,0-10.7-4.1-13.9-13.4c-2-5.7-2.2-7.8-3.4-7.8c-1.1,0-1.5,2.4-3.7,8.7C60.3,53.1,57.6,60,52,60c-6.2,0-8.9-8.4-11.2-15.3
	c-1.3-3.8-1.6-5.6-2.7-5.6c-1,0-1.3,1.6-2.6,5.4c-2.4,7-5,15.5-11.3,15.5c-6.2,0-9-8.3-10.5-13.3c-2.3-7.4-2.7-9.1-6.8-9.1H0.7
	C0.3,40,0,42.5,0,45.1c0,24.9,20.2,45.1,45.1,45.1c19.6,0,36.2-12.5,42.4-30C87.5,60.1,83.2,60.1,83.2,60.1z"/>
</svg>
