<?xml version="1.0" encoding="utf-8"?>
<!-- Generator: Adobe Illustrator 19.2.0, SVG Export Plug-In . SVG Version: 6.00 Build 0)  -->
<svg version="1.1" id="Layer_1" xmlns="http://www.w3.org/2000/svg" xmlns:xlink="http://www.w3.org/1999/xlink" width="185px" height="40px" x="0px" y="0px"
	 viewBox="0 0 468.7 91.3" style="enable-background:new 0 0 468.7 91.3;" xml:space="preserve">
<style type="text/css">
	.st0{fill:url(#SVGID_1_);}
	.st1{fill:#59595A;}
</style>
<linearGradient id="SVGID_1_" gradientUnits="userSpaceOnUse" x1="0" y1="45.6659" x2="91.3318" y2="45.6659">
	<stop  offset="0" style="stop-color:#29C5F4"/>
	<stop  offset="0.9989" style="stop-color:#3C62AE"/>
</linearGradient>
<path class="st0" d="M45.7,0C20.4,0,0,20.4,0,45.7s20.4,45.7,45.7,45.7s45.7-20.4,45.7-45.7S70.9,0,45.7,0z M72.3,53.3H41.9V19h7.6
	v26.6h22.8V53.3z"/>
<g>
	<path class="st1" d="M118.1,56.7c-2.1-1-3.8-2.4-5-4.2c-1.2-1.8-1.8-4-1.8-6.4V26.3c0-1,0.5-1.4,1.4-1.4h1.5c0.5,0,0.9,0.1,1.1,0.4
		c0.2,0.2,0.3,0.6,0.3,1.1v19.9c0,2.7,0.9,4.7,2.6,6.3c1.7,1.5,4.1,2.3,7.2,2.3c3.1,0,5.5-0.8,7.2-2.3c1.7-1.5,2.6-3.6,2.6-6.3V26.3
		c0-0.5,0.1-0.8,0.3-1.1c0.2-0.2,0.6-0.4,1.1-0.4h1.4c1,0,1.5,0.5,1.5,1.4v19.7c0,2.5-0.6,4.6-1.8,6.4c-1.2,1.8-2.9,3.2-5,4.2
		c-2.1,1-4.6,1.5-7.4,1.5C122.7,58.2,120.2,57.7,118.1,56.7z"/>
	<path class="st1" d="M145.8,65.7V36.5c1.1-0.8,2.7-1.4,4.6-1.9c1.9-0.5,3.8-0.8,5.7-0.8c9.1,0,13.6,4.1,13.6,12.2c0,3.8-1,6.8-3,9
		c-2,2.2-4.8,3.3-8.2,3.3c-1.9,0-3.5-0.3-4.8-0.8c-1.4-0.6-2.6-1.4-3.6-2.6v11c0,0.5-0.1,0.8-0.3,1.1c-0.2,0.2-0.6,0.4-1.1,0.4h-1.4
		C146.3,67.1,145.8,66.7,145.8,65.7z M163.5,52.5c1.3-1.6,2-3.8,2-6.8c0-3.1-0.8-5.3-2.3-6.7c-1.5-1.3-3.9-2-7.1-2
		c-2.6,0-4.5,0.4-6,1.1v10.3c0,1.3,0.3,2.4,1,3.4c0.7,1,1.6,1.7,2.7,2.2c1.1,0.5,2.3,0.8,3.6,0.8C160.1,54.9,162.2,54.1,163.5,52.5z
		"/>
	<path class="st1" d="M176.6,55.1c-2.3-2.1-3.5-5.1-3.5-9c0-2.4,0.5-4.6,1.6-6.4c1.1-1.9,2.6-3.3,4.6-4.3c2-1,4.3-1.6,6.9-1.6
		c1.9,0,3.6,0.2,5,0.5c1.4,0.4,2.6,1,3.9,1.8c0.3,0.2,0.4,0.4,0.4,0.6c0,0.1-0.1,0.2-0.2,0.5l-1,1.6c-0.1,0.3-0.3,0.4-0.4,0.4
		c-0.1,0-0.3-0.1-0.5-0.2c-1-0.7-2-1.2-3.1-1.5c-1.1-0.3-2.4-0.5-3.9-0.5c-2.8,0-5,0.8-6.6,2.4c-1.6,1.6-2.3,3.8-2.3,6.6
		c0,3,0.8,5.2,2.3,6.7c1.6,1.4,3.9,2.2,7,2.2c1.5,0,2.8-0.2,3.9-0.5c1.1-0.3,2.1-0.8,3-1.5c0.2-0.2,0.4-0.2,0.5-0.2
		c0.2,0,0.3,0.1,0.4,0.4l1,1.7c0.1,0.3,0.2,0.4,0.2,0.4c0,0.2-0.1,0.4-0.4,0.6c-1.2,0.8-2.5,1.4-4,1.8s-3.1,0.6-5,0.6
		C182.2,58.2,178.9,57.1,176.6,55.1z"/>
	<path class="st1" d="M203.5,54.9c-2.2-2.2-3.3-5.2-3.3-8.9c0-3.8,1.1-6.7,3.3-8.9c2.2-2.2,5.3-3.3,9.3-3.3c4,0,7.1,1.1,9.3,3.3
		c2.2,2.2,3.3,5.2,3.3,8.9c0,3.8-1.1,6.7-3.3,8.9c-2.2,2.2-5.3,3.3-9.3,3.3C208.8,58.2,205.7,57.1,203.5,54.9z M219,52.6
		c1.4-1.5,2.1-3.7,2.1-6.6c0-2.8-0.7-5-2.1-6.5c-1.4-1.5-3.5-2.3-6.2-2.3c-2.7,0-4.8,0.8-6.2,2.3c-1.4,1.5-2.1,3.7-2.1,6.5
		c0,2.8,0.7,5,2.1,6.6c1.4,1.5,3.5,2.3,6.2,2.3C215.5,54.8,217.6,54.1,219,52.6z"/>
	<path class="st1" d="M230.9,56V35.7c0-0.4,0.1-0.8,0.2-0.9c0.1-0.2,0.4-0.3,0.9-0.3h1.5c0.4,0,0.6,0.1,0.7,0.2
		c0.1,0.2,0.2,0.4,0.3,0.8l0,2.3c0.9-1.3,2-2.3,3.3-3c1.2-0.7,2.7-1.1,4.5-1.1c1.4,0,2.6,0.4,3.7,1.1c1.1,0.7,1.8,1.7,2.2,3
		c0.8-1.3,1.9-2.3,3.3-3c1.3-0.7,2.9-1.1,4.6-1.1c2.2,0,3.9,0.7,5.2,2c1.3,1.3,2,3.3,2,6V56c0,1-0.5,1.4-1.5,1.4h-1.2
		c-0.5,0-0.9-0.1-1.1-0.4c-0.2-0.2-0.3-0.6-0.3-1.1V42c0-1.8-0.4-3-1.1-3.8c-0.7-0.7-1.8-1.1-3.2-1.1c-1.6,0-3,0.5-4.1,1.6
		c-1.1,1.1-1.6,2.5-1.6,4.1V56c0,1-0.5,1.4-1.4,1.4h-1.2c-0.5,0-0.9-0.1-1.1-0.4c-0.2-0.2-0.3-0.6-0.3-1.1V41.6c0-1.6-0.3-2.7-1-3.4
		c-0.7-0.7-1.7-1.1-3.1-1.1c-1.7,0-3.1,0.6-4.2,1.7c-1.1,1.1-1.7,2.6-1.7,4.3v13c0,0.5-0.1,0.8-0.3,1.1c-0.2,0.2-0.6,0.4-1.1,0.4
		h-1.2C231.4,57.5,230.9,57,230.9,56z"/>
	<path class="st1" d="M270,29.1c-0.4-0.4-0.5-0.8-0.5-1.4v-1c0-0.5,0.2-1,0.5-1.4c0.4-0.4,0.8-0.6,1.4-0.6h1.3
		c0.6,0,1.1,0.2,1.4,0.6c0.4,0.4,0.5,0.8,0.5,1.4v1c0,0.5-0.2,1-0.5,1.4c-0.4,0.4-0.8,0.6-1.4,0.6h-1.3
		C270.8,29.7,270.4,29.5,270,29.1z M270.3,57.1c-0.2-0.2-0.3-0.6-0.3-1.1V35.9c0-0.5,0.1-0.8,0.3-1.1c0.2-0.2,0.6-0.4,1.1-0.4h1.4
		c1,0,1.5,0.5,1.5,1.4V56c0,1-0.5,1.4-1.5,1.4h-1.4C270.9,57.5,270.5,57.4,270.3,57.1z"/>
	<path class="st1" d="M281.2,56V35.7c0-0.4,0.1-0.8,0.2-0.9c0.1-0.2,0.4-0.3,0.9-0.3h1.6c0.7,0,1.1,0.3,1.1,1v2.2
		c2.3-2.6,5.6-3.9,9.9-3.9c2.6,0,4.7,0.7,6.2,2c1.5,1.4,2.3,3.4,2.3,6.2V56c0,0.5-0.1,0.8-0.3,1.1c-0.2,0.2-0.6,0.4-1.1,0.4h-1.4
		c-1,0-1.5-0.5-1.5-1.4V42.2c0-1.9-0.4-3.2-1.3-4s-2.3-1.1-4.2-1.1c-1.3,0-2.6,0.2-3.8,0.7c-1.2,0.5-2.2,1.2-3,2.1
		c-0.8,0.9-1.1,1.9-1.1,3.1V56c0,0.5-0.1,0.8-0.3,1.1c-0.2,0.2-0.6,0.4-1.1,0.4h-1.4C281.7,57.5,281.2,57,281.2,56z"/>
	<path class="st1" d="M316.3,65.1c-1.7-0.3-2.9-0.7-3.8-1.2c-0.6-0.4-0.8-0.7-0.5-1.1l1.1-1.8c0.1-0.3,0.3-0.4,0.4-0.4
		c0.1,0,0.2,0,0.4,0.1c0.9,0.4,2,0.8,3.3,1.1c1.3,0.3,2.7,0.4,4,0.4c2.5,0,4.2-0.6,5.3-1.8c1.1-1.2,1.7-3.3,1.7-6.2
		c-1.1,1.2-2.2,2.1-3.5,2.7s-2.9,0.8-5,0.8c-3.4,0-6.2-1-8.2-3c-2-2-3-4.7-3-8.3c0-4.1,1.2-7.2,3.5-9.4c2.4-2.2,5.7-3.4,10.1-3.4
		c1.9,0,3.9,0.3,5.8,0.8c1.9,0.5,3.4,1.2,4.6,1.9v17.2c0,3.8-0.9,6.8-2.7,8.8c-1.8,2-4.6,3.1-8.3,3.1
		C319.7,65.6,318,65.5,316.3,65.1z M326.1,52.7c1.4-1.1,2.1-2.7,2.1-4.6v-9.9c-0.7-0.4-1.6-0.6-2.7-0.8c-1.1-0.2-2.3-0.3-3.4-0.3
		c-2.9,0-5.2,0.8-6.8,2.3c-1.6,1.5-2.4,3.8-2.4,6.9c0,5.5,2.7,8.2,8.1,8.2C323,54.4,324.8,53.8,326.1,52.7z"/>
	<path class="st1" d="M359.1,56V26.3c0-1,0.5-1.4,1.4-1.4h1.5c0.5,0,0.9,0.1,1.1,0.4c0.2,0.2,0.3,0.6,0.3,1.1V56
		c0,0.5-0.1,0.8-0.3,1.1c-0.2,0.2-0.6,0.4-1.1,0.4h-1.5C359.5,57.5,359.1,57,359.1,56z"/>
	<path class="st1" d="M373.2,53.7c-2.9-3-4.3-7.2-4.3-12.5c0-5.4,1.4-9.6,4.3-12.5c2.9-3,7-4.5,12.3-4.5c2,0,4,0.2,5.7,0.6
		c1.8,0.4,3.3,1,4.5,1.8c0.3,0.2,0.4,0.3,0.4,0.5c0,0.1,0,0.3-0.1,0.5l-1,1.7c-0.1,0.3-0.3,0.4-0.4,0.4c-0.2,0-0.3-0.1-0.5-0.2
		c-1-0.6-2.1-1-3.5-1.4c-1.4-0.4-3-0.6-4.7-0.6c-3.9,0-7,1.1-9.3,3.4c-2.3,2.3-3.4,5.7-3.4,10.3c0,4.7,1.1,8.1,3.4,10.3
		c2.3,2.2,5.4,3.3,9.3,3.3c1.9,0,3.6-0.2,5-0.5c1.4-0.3,2.7-0.8,3.8-1.5c0.2-0.1,0.3-0.2,0.5-0.2c0.2,0,0.3,0.1,0.4,0.3l1.1,1.8
		c0.1,0.1,0.1,0.3,0.1,0.4c0,0.1,0,0.2-0.1,0.3c-0.1,0.1-0.2,0.2-0.4,0.3c-2.5,1.7-6.1,2.5-10.8,2.5
		C380.2,58.2,376.1,56.7,373.2,53.7z"/>
	<path class="st1" d="M403.3,53.7c-2.8-3-4.2-7.2-4.2-12.5s1.4-9.5,4.2-12.5c2.8-3,6.8-4.5,11.9-4.5c5.1,0,9,1.5,11.8,4.5
		c2.8,3,4.2,7.2,4.2,12.5s-1.4,9.5-4.2,12.5c-2.8,3-6.8,4.5-11.8,4.5C410.1,58.2,406.1,56.7,403.3,53.7z M423.9,51.3
		c2.1-2.3,3.1-5.7,3.1-10.2c0-4.4-1-7.8-3.1-10.2c-2.1-2.3-5-3.5-8.7-3.5c-3.8,0-6.7,1.2-8.7,3.5c-2.1,2.3-3.1,5.7-3.1,10.2
		c0,4.4,1,7.8,3.1,10.2c2.1,2.3,5,3.5,8.7,3.5C418.9,54.8,421.8,53.7,423.9,51.3z"/>
	<path class="st1" d="M435,33.6c0-0.1,0-0.2,0.1-0.5l2.6-8c0.1-0.4,0.3-0.6,0.5-0.8c0.2-0.1,0.5-0.2,0.9-0.2h1.8
		c0.6,0,0.9,0.2,0.9,0.6c0,0.1,0,0.3-0.1,0.6l-3.4,8.1c-0.2,0.4-0.6,0.7-1.2,0.7h-1.3C435.2,34.2,435,34,435,33.6z"/>
	<path class="st1" d="M451.3,57.6c-1.8-0.4-3.3-1-4.5-1.8c-0.3-0.2-0.5-0.4-0.5-0.6c0-0.1,0-0.2,0.1-0.4l1-1.7
		c0.2-0.3,0.3-0.4,0.4-0.4c0,0,0.2,0.1,0.4,0.2c1,0.6,2.2,1.1,3.5,1.5c1.4,0.4,2.7,0.6,4.1,0.6c2.1,0,3.7-0.2,4.6-0.7
		c1-0.5,1.5-1.3,1.5-2.5c0-0.8-0.2-1.4-0.6-1.8c-0.4-0.5-1.1-0.9-2-1.2c-0.9-0.4-2.4-0.8-4.3-1.4c-1.8-0.5-3.3-1.1-4.4-1.6
		c-1.1-0.5-1.9-1.3-2.6-2.1c-0.6-0.9-1-2-1-3.3c0-2.1,0.9-3.7,2.6-4.8c1.7-1.1,4-1.6,6.7-1.6c1.8,0,3.4,0.2,5,0.6
		c1.5,0.4,2.8,1,3.9,1.7c0.3,0.2,0.5,0.4,0.5,0.6c0,0.1,0,0.2-0.1,0.4l-1,1.6c-0.1,0.2-0.3,0.3-0.4,0.3c-0.2,0-0.3-0.1-0.5-0.2
		c-1.9-1.2-4.2-1.8-7-1.8c-1.9,0-3.3,0.2-4.2,0.7c-0.9,0.5-1.3,1.3-1.3,2.5c0,0.8,0.2,1.4,0.6,1.8c0.4,0.5,1,0.8,1.7,1.1
		c0.7,0.3,1.9,0.7,3.4,1.1l1.9,0.6c1.9,0.6,3.3,1.2,4.3,1.8c1,0.6,1.8,1.3,2.2,2.1c0.4,0.8,0.7,1.8,0.7,3c0,1.9-0.8,3.5-2.5,4.6
		c-1.7,1.2-4.1,1.7-7.3,1.7C454.9,58.2,453.1,58,451.3,57.6z"/>
</g>
</svg>
